{
    "accessors" : [
        {
            "bufferView" : 0, 
            "componentType" : 5121, 
            "count" : 36, 
            "max" : [
                23
            ], 
            "min" : [
                0
            ], 
            "type" : "SCALAR"
        }, 
        {
            "bufferView" : 1, 
            "componentType" : 5126, 
            "count" : 24, 
            "max" : [
                1.0, 
                1.0, 
                2.0
            ], 
            "min" : [
                -1.0, 
                0.0, 
                1.0
            ], 
            "type" : "VEC3"
        }, 
        {
            "bufferView" : 2, 
            "componentType" : 5126, 
            "count" : 24, 
            "max" : [
                1.0, 
                1.0, 
                1.0
            ], 
            "min" : [
                -1.0, 
                -1.0, 
                -1.0
            ], 
            "type" : "VEC3"
        }, 
        {
            "bufferView" : 3, 
            "componentType" : 5121, 
            "count" : 36, 
            "max" : [
                23
            ], 
            "min" : [
                0
            ], 
            "type" : "SCALAR"
        }, 
        {
            "bufferView" : 4, 
            "componentType" : 5126, 
            "count" : 24, 
            "max" : [
                0.5, 
                1.0, 
                0.7226028442382812
            ], 
            "min" : [
                -0.5, 
                -1.0, 
                -0.5
            ], 
            "type" : "VEC3"
        }, 
        {
            "bufferView" : 5, 
            "componentType" : 5126, 
            "count" : 24, 
            "max" : [
                1.0, 
                1.0, 
                0.9761082530021667
            ], 
            "min" : [
                -1.0, 
                -1.0, 
                -1.0
            ], 
            "type" : "VEC3"
        }, 
        {
            "bufferView" : 6, 
            "componentType" : 5121, 
            "count" : 435, 
            "max" : [
                208
            ], 
            "min" : [
                0
            ], 
            "type" : "SCALAR"
        }, 
        {
            "bufferView" : 7, 
            "componentType" : 5126, 
            "count" : 209, 
            "max" : [
                3.640629529953003, 
                3.4154839515686035, 
                2.0
            ], 
            "min" : [
                -3.0, 
                0.0, 
                -2.0
            ], 
            "type" : "VEC3"
        }, 
        {
            "bufferView" : 8, 
            "componentType" : 5126, 
            "count" : 209, 
            "max" : [
                1.0, 
                0.9999999403953552, 
                1.0
            ], 
            "min" : [
                -1.0, 
                -1.0, 
                -1.0
            ], 
            "type" : "VEC3"
        }, 
        {
            "bufferView" : 9, 
            "componentType" : 5121, 
            "count" : 36, 
            "max" : [
                23
            ], 
            "min" : [
                0
            ], 
            "type" : "SCALAR"
        }, 
        {
            "bufferView" : 10, 
            "componentType" : 5126, 
            "count" : 24, 
            "max" : [
                -2.950000047683716, 
                2.0, 
                0.5
            ], 
            "min" : [
                -3.049999952316284, 
                0.0, 
                -0.0
            ], 
            "type" : "VEC3"
        }, 
        {
            "bufferView" : 11, 
            "componentType" : 5126, 
            "count" : 24, 
            "max" : [
                1.0, 
                1.0, 
                1.0
            ], 
            "min" : [
                -1.0, 
                -1.0, 
                -1.0
            ], 
            "type" : "VEC3"
        }, 
        {
            "bufferView" : 12, 
            "componentType" : 5121, 
            "count" : 36, 
            "max" : [
                23
            ], 
            "min" : [
                0
            ], 
            "type" : "SCALAR"
        }, 
        {
            "bufferView" : 13, 
            "componentType" : 5126, 
            "count" : 24, 
            "max" : [
                -2.950000047683716, 
                2.0, 
                -0.0
            ], 
            "min" : [
                -3.049999952316284, 
                0.0, 
                -0.5
            ], 
            "type" : "VEC3"
        }, 
        {
            "bufferView" : 14, 
            "componentType" : 5126, 
            "count" : 24, 
            "max" : [
                1.0, 
                1.0, 
                1.0
            ], 
            "min" : [
                -1.0, 
                -1.0, 
                -1.0
            ], 
            "type" : "VEC3"
        }, 
        {
            "bufferView" : 15, 
            "componentType" : 5121, 
            "count" : 72, 
            "max" : [
                47
            ], 
            "min" : [
                0
            ], 
            "type" : "SCALAR"
        }, 
        {
            "bufferView" : 16, 
            "componentType" : 5126, 
            "count" : 48, 
            "max" : [
                -2.9000000953674316, 
                2.0, 
                1.0
            ], 
            "min" : [
                -3.0999999046325684, 
                0.0, 
                -1.0
            ], 
            "type" : "VEC3"
        }, 
        {
            "bufferView" : 17, 
            "componentType" : 5126, 
            "count" : 48, 
            "max" : [
                1.0, 
                1.0, 
                1.0
            ], 
            "min" : [
                -1.0, 
                -1.0, 
                -1.0
            ], 
            "type" : "VEC3"
        }
    ], 
    "asset" : {
        "generator" : "Khronos Blender glTF 2.0 exporter", 
        "version" : "2.0"
    }, 
    "bufferViews" : [
        {
            "buffer" : 0, 
            "byteLength" : 36, 
            "byteOffset" : 0, 
            "target" : 34963
        }, 
        {
            "buffer" : 0, 
            "byteLength" : 288, 
            "byteOffset" : 36, 
            "target" : 34962
        }, 
        {
            "buffer" : 0, 
            "byteLength" : 288, 
            "byteOffset" : 324, 
            "target" : 34962
        }, 
        {
            "buffer" : 0, 
            "byteLength" : 36, 
            "byteOffset" : 612, 
            "target" : 34963
        }, 
        {
            "buffer" : 0, 
            "byteLength" : 288, 
            "byteOffset" : 648, 
            "target" : 34962
        }, 
        {
            "buffer" : 0, 
            "byteLength" : 288, 
            "byteOffset" : 936, 
            "target" : 34962
        }, 
        {
            "buffer" : 0, 
            "byteLength" : 435, 
            "byteOffset" : 1224, 
            "target" : 34963
        }, 
        {
            "buffer" : 0, 
            "byteLength" : 2508, 
            "byteOffset" : 1660, 
            "target" : 34962
        }, 
        {
            "buffer" : 0, 
            "byteLength" : 2508, 
            "byteOffset" : 4168, 
            "target" : 34962
        }, 
        {
            "buffer" : 0, 
            "byteLength" : 36, 
            "byteOffset" : 6676, 
            "target" : 34963
        }, 
        {
            "buffer" : 0, 
            "byteLength" : 288, 
            "byteOffset" : 6712, 
            "target" : 34962
        }, 
        {
            "buffer" : 0, 
            "byteLength" : 288, 
            "byteOffset" : 7000, 
            "target" : 34962
        }, 
        {
            "buffer" : 0, 
            "byteLength" : 36, 
            "byteOffset" : 7288, 
            "target" : 34963
        }, 
        {
            "buffer" : 0, 
            "byteLength" : 288, 
            "byteOffset" : 7324, 
            "target" : 34962
        }, 
        {
            "buffer" : 0, 
            "byteLength" : 288, 
            "byteOffset" : 7612, 
            "target" : 34962
        }, 
        {
            "buffer" : 0, 
            "byteLength" : 72, 
            "byteOffset" : 7900, 
            "target" : 34963
        }, 
        {
            "buffer" : 0, 
            "byteLength" : 576, 
            "byteOffset" : 7972, 
            "target" : 34962
        }, 
        {
            "buffer" : 0, 
            "byteLength" : 576, 
            "byteOffset" : 8548, 
            "target" : 34962
        }
    ], 
    "buffers" : [
        {
            "byteLength" : 9124, 
            "uri" : "room01_block1.bin"
        }
    ], 
    "meshes" : [
        {
            "name" : "Cube.003", 
            "primitives" : [
                {
                    "attributes" : {
                        "NORMAL" : 2, 
                        "POSITION" : 1
                    }, 
                    "indices" : 0
                }
            ]
        }, 
        {
            "name" : "Cube.002", 
            "primitives" : [
                {
                    "attributes" : {
                        "NORMAL" : 5, 
                        "POSITION" : 4
                    }, 
                    "indices" : 3
                }
            ]
        }, 
        {
            "name" : "Cube.001", 
            "primitives" : [
                {
                    "attributes" : {
                        "NORMAL" : 8, 
                        "POSITION" : 7
                    }, 
                    "indices" : 6
                }
            ]
        }, 
        {
            "name" : "Cube.006", 
            "primitives" : [
                {
                    "attributes" : {
                        "NORMAL" : 11, 
                        "POSITION" : 10
                    }, 
                    "indices" : 9
                }
            ]
        }, 
        {
            "name" : "Cube.007", 
            "primitives" : [
                {
                    "attributes" : {
                        "NORMAL" : 14, 
                        "POSITION" : 13
                    }, 
                    "indices" : 12
                }
            ]
        }, 
        {
            "name" : "Cube.005", 
            "primitives" : [
                {
                    "attributes" : {
                        "NORMAL" : 17, 
                        "POSITION" : 16
                    }, 
                    "indices" : 15
                }
            ]
        }
    ], 
    "nodes" : [
        {
            "mesh" : 2, 
            "name" : "Cube"
        }, 
        {
            "mesh" : 1, 
            "name" : "Cube.001", 
            "scale" : [
                0.5, 
                1.0, 
                0.5
            ], 
            "translation" : [
                0.7487077713012695, 
                1.0, 
                -1.75
            ]
        }, 
        {
            "mesh" : 0, 
            "name" : "Cube.002"
        }, 
        {
            "mesh" : 3, 
            "name" : "Door Left", 
            "translation" : [
                0.0, 
                0.0, 
                0.5
            ]
        }, 
        {
            "mesh" : 5, 
            "name" : "Door Outer"
        }, 
        {
            "mesh" : 4, 
            "name" : "Door Right", 
            "translation" : [
                0.0, 
                0.0, 
                -0.5
            ]
        }
    ], 
    "scene" : 0, 
    "scenes" : [
        {
            "name" : "Scene", 
            "nodes" : [
                5, 
                3, 
                4, 
                2, 
                1, 
                0
            ]
        }
    ]
}
